<svg id="Layer_1" xmlns="http://www.w3.org/2000/svg" viewBox="0 0 15.7 15.7">
  <style>
    .st0{fill:#967b73;stroke:#967b73;stroke-width:0.25;stroke-miterlimit:10;}
  </style>
  <path class="st0" d="M7.9 15.6c-1.7 0-3.4-.6-4.8-1.6C1.5 12.7.4 10.9.2 8.8c-.3-2.1.3-4.1 1.6-5.7 1.5-1.9 3.7-3 6.1-3 1.7 0 3.4.6 4.8 1.6 1.6 1.3 2.7 3.1 2.9 5.2.2 2.1-.4 4.1-1.6 5.7-1.5 1.9-3.7 3-6.1 3zM7.9.8c-2.2 0-4.2 1-5.6 2.7C1.2 5 .7 6.9.9 8.7c.2 1.9 1.2 3.5 2.7 4.7 1.2 1 2.7 1.5 4.3 1.5 2.2 0 4.2-1 5.6-2.7 1.2-1.5 1.7-3.3 1.4-5.2-.2-1.9-1.2-3.5-2.7-4.7C10.9 1.3 9.5.8 7.9.8z"/>
  <path class="st0" d="M4.732 5.25l.424-.423 5.728 5.727-.425.425z"/>
  <path class="st0" d="M4.732 10.484l5.727-5.728.424.425-5.728 5.728z"/>
</svg>