<svg id="Layer_1" xmlns="http://www.w3.org/2000/svg" viewBox="0 0 23.2 22.3"><style>.st0{fill:#DEDFD4;}</style><path class="st0" d="M8 14.4l-.4-.3c-.9-.7-1.9-1.1-3-1.1C2 13.1 0 15.1 0 17.7c0 2.4 1.7 4.4 4.2 4.6 2.8.3 5.1-1.9 5.1-4.6v-7.2c0-.7.5-1.3 1.2-1.5l8.8-1.8V5.9l-8.1 1.7c-.9.2-1.8-.5-1.8-1.5v-.6c0-.7.5-1.3 1.2-1.5l9.6-2.1c.9-.2 1.8.5 1.8 1.5v10l-.4-.3c-.9-.7-1.9-1.1-3-1.1-2.6 0-4.5 2-4.6 4.6 0 2.4 1.7 4.4 4.2 4.6 2.8.3 5.1-1.9 5.1-4.6V1.8c0-1-.9-1.7-1.8-1.5L9.1 3c-.6.1-1.1.7-1.1 1.4v10zM4.6 21c-1.9 0-3.3-1.5-3.3-3.3s1.5-3.3 3.3-3.3S8 15.8 8 17.7 6.5 21 4.6 21zm14-1c-1.9 0-3.3-1.5-3.3-3.3s1.5-3.3 3.3-3.3 3.3 1.5 3.3 3.3-1.5 3.3-3.3 3.3z"/></svg>